HIERARCHY
ROOT Hips
{
  OFFSET 5.84602e-005 68.8428 3.50346
  CHANNELS 6 Xposition Yposition Zposition Zrotation Xrotation Yrotation
  JOINT Spine
  {
    OFFSET 0 8.597 -4.6522
    CHANNELS 3 Zrotation Xrotation Yrotation
    JOINT Spine1
    {
      OFFSET 0 7.8454 0.4098
      CHANNELS 3 Zrotation Xrotation Yrotation
      JOINT Spine2
      {
        OFFSET 0 9.7078 -2.1609
        CHANNELS 3 Zrotation Xrotation Yrotation
        JOINT Neck
        {
          OFFSET 0 21.8761 -0.4549
          CHANNELS 3 Zrotation Xrotation Yrotation
          JOINT Head
          {
            OFFSET 0 12.3537 3.3602
            CHANNELS 3 Zrotation Xrotation Yrotation
            End Site
            {
              OFFSET 0.0001 18.9506 0.5657
            }
          }
        }
        JOINT LeftShoulder
        {
          OFFSET 2.2086 21.1115 7.2329
          CHANNELS 3 Zrotation Xrotation Yrotation
          JOINT LeftArm
          {
            OFFSET 13.1193 3.0282 -4.8998
            CHANNELS 3 Zrotation Xrotation Yrotation
            JOINT LeftForeArm
            {
              OFFSET 27.4081 -0.0973053 -0.2375
              CHANNELS 3 Zrotation Xrotation Yrotation
              JOINT LeftHand
              {
                OFFSET 22.8641 0.0662994 -0.1369
                CHANNELS 3 Zrotation Xrotation Yrotation
                JOINT LeftHandIndex1
                {
                  OFFSET 8.8614 0.775009 2.4612
                  CHANNELS 3 Zrotation Xrotation Yrotation
                  JOINT LeftHandIndex2
                  {
                    OFFSET 3.3146 -0.808304 0.5841
                    CHANNELS 3 Zrotation Xrotation Yrotation
                    JOINT LeftHandIndex3
                    {
                      OFFSET 2.2628 -0.552002 0.3989
                      CHANNELS 3 Zrotation Xrotation Yrotation
                      End Site
                      {
                        OFFSET 1.6102 -0.4807 0.2612
                      }
                    }
                  }
                }
                JOINT LeftHandMiddle1
                {
                  OFFSET 8.9937 0.895004 0.2143
                  CHANNELS 3 Zrotation Xrotation Yrotation
                  JOINT LeftHandMiddle2
                  {
                    OFFSET 4.0984 0.0113983 -0.0242
                    CHANNELS 3 Zrotation Xrotation Yrotation
                    JOINT LeftHandMiddle3
                    {
                      OFFSET 2.2716 0.00689697 -0.0138001
                      CHANNELS 3 Zrotation Xrotation Yrotation
                      End Site
                      {
                        OFFSET 2.0404 -0.1441 0.0027
                      }
                    }
                  }
                }
                JOINT LeftHandRing1
                {
                  OFFSET 8.5234 0.597198 -2.0164
                  CHANNELS 3 Zrotation Xrotation Yrotation
                  JOINT LeftHandRing2
                  {
                    OFFSET 3.7188 -0.188293 -0.2328
                    CHANNELS 3 Zrotation Xrotation Yrotation
                    JOINT LeftHandRing3
                    {
                      OFFSET 2.1191 -0.106598 -0.1332
                      CHANNELS 3 Zrotation Xrotation Yrotation
                      End Site
                      {
                        OFFSET 1.8737 -0.2304 -0.0886
                      }
                    }
                  }
                }
                JOINT LeftHandPinky1
                {
                  OFFSET 7.9094 -0.601089 -3.4825
                  CHANNELS 3 Zrotation Xrotation Yrotation
                  JOINT LeftHandPinky2
                  {
                    OFFSET 2.2874 -0.477005 -0.6314
                    CHANNELS 3 Zrotation Xrotation Yrotation
                    JOINT LeftHandPinky3
                    {
                      OFFSET 1.6774 -0.349396 -0.4633
                      CHANNELS 3 Zrotation Xrotation Yrotation
                      End Site
                      {
                        OFFSET 1.4888 -0.4091 -0.3416
                      }
                    }
                  }
                }
                JOINT LeftHandThumb1
                {
                  OFFSET 1.833 -1.3875 1.3896
                  CHANNELS 3 Zrotation Xrotation Yrotation
                  JOINT LeftHandThumb2
                  {
                    OFFSET 3.4129 -1.121 2.5732
                    CHANNELS 3 Zrotation Xrotation Yrotation
                    JOINT LeftHandThumb3
                    {
                      OFFSET 2.2474 -0.804199 1.6192
                      CHANNELS 3 Zrotation Xrotation Yrotation
                      End Site
                      {
                        OFFSET 1.6527 -0.5689 1.1317
                      }
                    }
                  }
                }
              }
            }
          }
        }
        JOINT RightShoulder
        {
          OFFSET -2.2086 21.1115 7.2329
          CHANNELS 3 Zrotation Xrotation Yrotation
          JOINT RightArm
          {
            OFFSET -13.1216 3.0287 -4.9007
            CHANNELS 3 Zrotation Xrotation Yrotation
            JOINT RightForeArm
            {
              OFFSET -27.4081 -0.0973053 -0.2375
              CHANNELS 3 Zrotation Xrotation Yrotation
              JOINT RightHand
              {
                OFFSET -22.8641 0.0664063 -0.1369
                CHANNELS 3 Zrotation Xrotation Yrotation
                JOINT RightHandIndex1
                {
                  OFFSET -8.8614 0.774994 2.4612
                  CHANNELS 3 Zrotation Xrotation Yrotation
                  JOINT RightHandIndex2
                  {
                    OFFSET -3.3146 -0.808304 0.5841
                    CHANNELS 3 Zrotation Xrotation Yrotation
                    JOINT RightHandIndex3
                    {
                      OFFSET -2.2628 -0.552002 0.3989
                      CHANNELS 3 Zrotation Xrotation Yrotation
                      End Site
                      {
                        OFFSET -1.6102 -0.4807 0.2612
                      }
                    }
                  }
                }
                JOINT RightHandMiddle1
                {
                  OFFSET -8.9937 0.894989 0.2143
                  CHANNELS 3 Zrotation Xrotation Yrotation
                  JOINT RightHandMiddle2
                  {
                    OFFSET -4.0984 0.0113983 -0.0242
                    CHANNELS 3 Zrotation Xrotation Yrotation
                    JOINT RightHandMiddle3
                    {
                      OFFSET -2.2716 0.00691223 -0.0138001
                      CHANNELS 3 Zrotation Xrotation Yrotation
                      End Site
                      {
                        OFFSET -2.0404 -0.1441 0.0027
                      }
                    }
                  }
                }
                JOINT RightHandRing1
                {
                  OFFSET -8.5234 0.597198 -2.0164
                  CHANNELS 3 Zrotation Xrotation Yrotation
                  JOINT RightHandRing2
                  {
                    OFFSET -3.7188 -0.188309 -0.2328
                    CHANNELS 3 Zrotation Xrotation Yrotation
                    JOINT RightHandRing3
                    {
                      OFFSET -2.1191 -0.106598 -0.1332
                      CHANNELS 3 Zrotation Xrotation Yrotation
                      End Site
                      {
                        OFFSET -1.8737 -0.2304 -0.0886
                      }
                    }
                  }
                }
                JOINT RightHandPinky1
                {
                  OFFSET -7.9094 -0.601105 -3.4825
                  CHANNELS 3 Zrotation Xrotation Yrotation
                  JOINT RightHandPinky2
                  {
                    OFFSET -2.2874 -0.477005 -0.6314
                    CHANNELS 3 Zrotation Xrotation Yrotation
                    JOINT RightHandPinky3
                    {
                      OFFSET -1.6774 -0.349396 -0.4633
                      CHANNELS 3 Zrotation Xrotation Yrotation
                      End Site
                      {
                        OFFSET -1.4888 -0.4091 -0.3416
                      }
                    }
                  }
                }
                JOINT RightHandThumb1
                {
                  OFFSET -1.833 -1.38751 1.3896
                  CHANNELS 3 Zrotation Xrotation Yrotation
                  JOINT RightHandThumb2
                  {
                    OFFSET -3.41299 -1.12099 2.5732
                    CHANNELS 3 Zrotation Xrotation Yrotation
                    JOINT RightHandThumb3
                    {
                      OFFSET -2.24741 -0.804108 1.6192
                      CHANNELS 3 Zrotation Xrotation Yrotation
                      End Site
                      {
                        OFFSET -1.6527 -0.5689 1.1317
                      }
                    }
                  }
                }
              }
            }
          }
        }
      }
    }
  }
  JOINT RightUpLeg
  {
    OFFSET -9.1966 3.8861 -0.7581
    CHANNELS 3 Zrotation Xrotation Yrotation
    JOINT RightLeg
    {
      OFFSET -0.7359 -41.0265 0
      CHANNELS 3 Zrotation Xrotation Yrotation
      JOINT RightFoot
      {
        OFFSET 0 -40.2855 0
        CHANNELS 3 Zrotation Xrotation Yrotation
        JOINT RightToeBase
        {
          OFFSET 0 -5.6122 11.7359
          CHANNELS 3 Zrotation Xrotation Yrotation
          End Site
          {
            OFFSET 0 0 7.8731
          }
        }
      }
    }
  }
  JOINT LeftUpLeg
  {
    OFFSET 9.1965 3.8864 -0.7581
    CHANNELS 3 Zrotation Xrotation Yrotation
    JOINT LeftLeg
    {
      OFFSET 0.7359 -41.0268 0
      CHANNELS 3 Zrotation Xrotation Yrotation
      JOINT LeftFoot
      {
        OFFSET 0 -40.2855 0
        CHANNELS 3 Zrotation Xrotation Yrotation
        JOINT LeftToeBase
        {
          OFFSET 0 -5.6122 11.7359
          CHANNELS 3 Zrotation Xrotation Yrotation
          End Site
          {
            OFFSET 0 0 7.8731
          }
        }
      }
    }
  }
}
MOTION
Frames:	4
Frame Time:	0.0333333
-0.963762 67.1134 -1.01851 -0.00580438 -7.73277 -170.058 0.0346506 11.0512 -0.191023 0.110881 22.1021 -0.400566 0.110878 22.1022 -0.400563 -4.30747 -11.3137 -7.76234 -4.18489 -4.98914 -0.702461 -41.7427 -44.4285 -25.1502 -22.6846 4.24244 19.7872 -23.0917 -18.842 -1.48411 -16.0633 -4.35473 -35.2387 -5.0552e-007 9.00578e-007 -1.31814e-006 -1.67925e-006 -8.3513e-007 -4.43744e-006 -5.0552e-007 9.00578e-007 -1.31814e-006 -5.0552e-007 9.00578e-007 -1.31814e-006 -0.0145965 -8.66082e-005 -1.90176e-006 -5.05563e-007 9.00746e-007 -1.31803e-006 -5.0552e-007 9.00578e-007 -1.31814e-006 -0.0187854 -0.00117448 5.12919e-005 1.77189e-006 1.84405e-006 -1.13349e-006 -5.0552e-007 9.00578e-007 -1.31814e-006 -0.0122882 -0.00325188 0.000674249 -5.05587e-007 9.00713e-007 -1.31803e-006 -5.0552e-007 9.00578e-007 -1.31814e-006 -1.67925e-006 -8.3513e-007 -4.43744e-006 -5.0552e-007 9.00578e-007 -1.31814e-006 8.85589 -52.448 11.5866 15.2589 -1.59857 -28.7078 80.352 -5.31512 16.0501 4.65029 -1.46676 29.9562 2.0864e-007 4.39486e-007 4.16055e-007 -6.95466e-008 -1.46495e-007 -1.38685e-007 2.0864e-007 4.39486e-007 4.16055e-007 2.0864e-007 4.39486e-007 4.16055e-007 0.0150166 -9.02902e-005 1.84335e-006 2.08638e-007 4.39541e-007 4.15998e-007 2.0864e-007 4.39486e-007 4.16055e-007 0.0190086 -0.0011924 -5.66365e-005 2.08641e-007 4.39555e-007 4.1598e-007 2.0864e-007 4.39486e-007 4.16055e-007 0.0122439 -0.00323997 -0.000675461 2.08647e-007 4.39532e-007 4.16003e-007 2.0864e-007 4.39486e-007 4.16055e-007 -6.95466e-008 -1.46495e-007 -1.38685e-007 2.0864e-007 4.39486e-007 4.16055e-007 -117.708 -34.6918 -130.802 -151.935 55.8568 152.397 -4.11055 -24.4792 1.90928 6.41413e-007 -7.00177e-007 -7.82213e-008 38.625 27.0339 74.1466 80.8604 47.9873 -105.823 0.800269 30.1176 29.3842 -1.61874e-007 3.01408e-007 -5.41262e-007 
-0.962996 67.1854 -0.948038 -0.00597151 -8.26182 -170.056 0.034953 10.9791 -0.190803 0.111116 21.958 -0.399893 0.111115 21.958 -0.399891 -4.28856 -11.754 -7.76493 -4.1629 -5.55761 -0.728198 -42.3146 -44.3279 -25.0985 -22.5047 4.21199 19.35 -22.3423 -18.8869 -1.45039 -16.3449 -4.53087 -35.0544 -5.06034e-007 8.96136e-007 -1.32033e-006 -5.06034e-007 8.96136e-007 -1.32033e-006 -5.06034e-007 8.96136e-007 -1.32033e-006 -5.06034e-007 8.96136e-007 -1.32033e-006 -0.0146063 -8.66824e-005 -1.51104e-006 -5.06078e-007 8.96304e-007 -1.32022e-006 -5.06034e-007 8.96136e-007 -1.32033e-006 -0.0187672 -0.00117456 5.82601e-005 -2.3684e-006 7.30201e-007 -1.11444e-006 -5.06034e-007 8.96136e-007 -1.32033e-006 -0.0122924 -0.00325442 0.000673245 -5.06102e-007 8.96271e-007 -1.32022e-006 -5.06034e-007 8.96136e-007 -1.32033e-006 -5.06034e-007 8.96136e-007 -1.32033e-006 -5.06034e-007 8.96136e-007 -1.32033e-006 8.97817 -52.3256 11.5497 15.2589 -1.59857 -28.7078 80.2449 -5.35049 16.0468 4.79476 -1.25583 30.2416 -3.18055e-015 -3.18055e-015 6.36111e-015 6.95264e-008 1.46529e-007 1.3866e-007 3.18055e-015 0 6.36111e-015 -3.18055e-015 -3.18055e-015 6.36111e-015 0.0149692 -9.25391e-005 7.2222e-007 3.18055e-015 -1.27222e-014 -0 -3.18055e-015 -3.18055e-015 6.36111e-015 0.0190375 -0.00119289 -6.11432e-005 0 9.54166e-015 -0 -3.18055e-015 -3.18055e-015 6.36111e-015 0.0122486 -0.00324 -0.000677173 1.59028e-015 0 3.18055e-015 -3.18055e-015 -3.18055e-015 6.36111e-015 6.95264e-008 1.46529e-007 1.3866e-007 3.18055e-015 0 6.36111e-015 -118.134 -34.7204 -131.259 -151.934 55.8584 152.394 -3.95719 -24.4803 1.74326 -7.59325e-007 -1.98307e-006 3.77645e-008 38.3757 26.589 74.5888 80.8695 47.988 -105.83 0.873118 30.202 29.3895 5.3924e-008 -1.00439e-007 1.80448e-007 
-0.962205 67.2581 -0.877375 -0.00611406 -8.79081 -170.054 0.0352439 10.9069 -0.190535 0.11135 21.8139 -0.399212 0.11135 21.8139 -0.399217 -4.26952 -12.1946 -7.76743 -4.14115 -6.12612 -0.753745 -42.8855 -44.2278 -25.0454 -22.3252 4.18017 18.9129 -21.5929 -18.9313 -1.41601 -16.6261 -4.70787 -34.8709 2.17792e-006 9.80795e-007 1.75145e-007 -2.17792e-006 -9.80795e-007 -1.75145e-007 2.17792e-006 9.80795e-007 1.75145e-007 2.17792e-006 9.80795e-007 1.75145e-007 -0.0146544 -9.20387e-005 -5.01061e-006 4.2366e-015 6.36111e-015 4.74598e-015 2.17792e-006 9.80795e-007 1.75145e-007 -0.0187324 -0.00117185 5.61921e-005 -2.18051e-006 -9.80927e-007 -1.75275e-007 2.17792e-006 9.80795e-007 1.75145e-007 -0.0122716 -0.00324932 0.00066916 -2.36057e-015 3.18055e-015 2.45996e-015 2.17792e-006 9.80795e-007 1.75145e-007 -2.17792e-006 -9.80795e-007 -1.75145e-007 2.17792e-006 9.80795e-007 1.75145e-007 9.10024 -52.2032 11.5125 15.2589 -1.59857 -28.7078 80.1379 -5.38584 16.0434 4.93816 -1.04419 30.5264 6.95058e-008 1.46562e-007 1.38634e-007 0 0 -0 -6.95058e-008 -1.46562e-007 -1.38634e-007 6.95058e-008 1.46562e-007 1.38634e-007 0.0149585 -8.81395e-005 -4.55712e-006 -6.95053e-008 -1.4658e-007 -1.38615e-007 6.95058e-008 1.46562e-007 1.38634e-007 0.018982 -0.00118887 -6.09498e-005 -6.95063e-008 -1.46585e-007 -1.38609e-007 6.95058e-008 1.46562e-007 1.38634e-007 0.012206 -0.00323292 -0.000668654 -6.95084e-008 -1.46577e-007 -1.38617e-007 6.95058e-008 1.46562e-007 1.38634e-007 0 0 -0 -6.95058e-008 -1.46562e-007 -1.38634e-007 -118.56 -34.7462 -131.717 -151.932 55.8599 152.391 -3.80381 -24.4818 1.57724 7.95139e-016 1.59028e-015 -0 38.1313 26.1423 75.0271 80.8787 47.9887 -105.838 0.945999 30.2865 29.3947 -7.53445e-007 4.88913e-006 8.46855e-007 
-0.96139 67.3315 -0.806535 -0.00623903 -9.31969 -170.052 0.0355414 10.8348 -0.19027 0.111585 21.6697 -0.398535 0.111587 21.6697 -0.39854 -4.25072 -12.6344 -7.76971 -4.11962 -6.69465 -0.779102 -43.4554 -44.128 -24.991 -22.1459 4.14699 18.476 -20.8435 -18.9753 -1.38103 -16.9066 -4.88576 -34.6883 -4.74598e-015 6.36111e-015 6.55989e-015 2.11209e-015 1.90833e-014 -8.19987e-016 7.33018e-016 1.59028e-014 4.39811e-015 -4.74598e-015 6.36111e-015 6.55989e-015 -0.0145749 -8.60445e-005 -2.80001e-006 -6.31141e-015 3.18055e-015 3.23025e-016 -4.74598e-015 6.36111e-015 6.55989e-015 -0.0187876 -0.00117719 5.88913e-005 -6.08778e-016 6.36111e-015 -1.15544e-015 -4.74598e-015 6.36111e-015 6.55989e-015 -0.012309 -0.00325835 0.000677484 -1.92557e-006 -1.4111e-007 2.12665e-007 -4.74598e-015 6.36111e-015 6.55989e-015 2.11209e-015 1.90833e-014 -8.19987e-016 7.33018e-016 1.59028e-014 4.39811e-015 9.22209 -52.0809 11.4749 15.2589 -1.59857 -28.7078 80.0308 -5.4212 16.0399 5.0805 -0.831854 30.8106 9.54166e-015 -3.18055e-015 -3.18055e-015 3.47424e-007 7.32974e-007 6.9305e-007 -6.94848e-008 -1.46595e-007 -1.3861e-007 9.54166e-015 -3.18055e-015 -3.18055e-015 0.0150351 -8.88257e-005 -1.87137e-006 -6.94842e-008 -1.46613e-007 -1.38591e-007 9.54166e-015 -3.18055e-015 -3.18055e-015 0.019047 -0.00119447 -5.85531e-005 -6.94853e-008 -1.46618e-007 -1.38585e-007 9.54166e-015 -3.18055e-015 -3.18055e-015 0.0123049 -0.00325672 -0.00067751 -6.94873e-008 -1.4661e-007 -1.38592e-007 9.54166e-015 -3.18055e-015 -3.18055e-015 3.47424e-007 7.32974e-007 6.9305e-007 -6.94848e-008 -1.46595e-007 -1.3861e-007 -118.987 -34.7692 -132.175 -151.93 55.8614 152.388 -3.65044 -24.4837 1.41122 -9.22526e-007 -5.02165e-007 3.38182e-006 37.8916 25.6942 75.4615 80.8878 47.9894 -105.845 1.01901 30.371 29.3998 2.32317e-006 1.61135e-006 -9.44752e-007 
